REM DIRINDEX 1\2,1\3,1\4
REM DIRNAME folder01,folder02,folder03,folder04
TITLE ""
FILE "164 164_TOEFL_3900.mp3" MP3
  TRACK 01 AUDIO
    TITLE "2:cjc151_7146"
    INDEX 01 00:00:00
  TRACK 02 AUDIO
    TITLE "0:"
    INDEX 01 00:01:09
  TRACK 03 AUDIO
    TITLE "3:cjc151_7147"
    INDEX 01 00:02:63
  TRACK 04 AUDIO
    TITLE "0:"
    INDEX 01 00:06:39
  TRACK 05 AUDIO
    TITLE "2:cjc151_7148"
    INDEX 01 00:08:19
  TRACK 06 AUDIO
    TITLE "0:"
    INDEX 01 00:09:26
  TRACK 07 AUDIO
    TITLE "3:cjc151_7149"
    INDEX 01 00:11:05
  TRACK 08 AUDIO
    TITLE "0:"
    INDEX 01 00:14:11
  TRACK 09 AUDIO
    TITLE "2:cjc151_7150"
    INDEX 01 00:15:72
  TRACK 10 AUDIO
    TITLE "0:"
    INDEX 01 00:16:61
  TRACK 11 AUDIO
    TITLE "3:cjc151_7151"
    INDEX 01 00:18:52
  TRACK 12 AUDIO
    TITLE "0:"
    INDEX 01 00:23:32
  TRACK 13 AUDIO
    TITLE "2:cjc151_7152"
    INDEX 01 00:25:09
  TRACK 14 AUDIO
    TITLE "0:"
    INDEX 01 00:26:07
  TRACK 15 AUDIO
    TITLE "3:cjc151_7153"
    INDEX 01 00:27:59
  TRACK 16 AUDIO
    TITLE "0:"
    INDEX 01 00:31:18
  TRACK 17 AUDIO
    TITLE "2:cjc151_7154"
    INDEX 01 00:32:70
  TRACK 18 AUDIO
    TITLE "0:"
    INDEX 01 00:33:62
  TRACK 19 AUDIO
    TITLE "3:cjc151_7155"
    INDEX 01 00:35:39
  TRACK 20 AUDIO
    TITLE "0:"
    INDEX 01 00:39:52
  TRACK 21 AUDIO
    TITLE "2:cjc151_7156"
    INDEX 01 00:41:30
  TRACK 22 AUDIO
    TITLE "0:"
    INDEX 01 00:42:43
  TRACK 23 AUDIO
    TITLE "3:cjc151_7157"
    INDEX 01 00:44:16
  TRACK 24 AUDIO
    TITLE "0:"
    INDEX 01 00:49:18
  TRACK 25 AUDIO
    TITLE "2:cjc151_7158"
    INDEX 01 00:50:70
  TRACK 26 AUDIO
    TITLE "0:"
    INDEX 01 00:52:10
  TRACK 27 AUDIO
    TITLE "3:cjc151_7159"
    INDEX 01 00:53:64
  TRACK 28 AUDIO
    TITLE "0:"
    INDEX 01 00:59:02
  TRACK 29 AUDIO
    TITLE "2:cjc151_7160"
    INDEX 01 01:00:59
  TRACK 30 AUDIO
    TITLE "0:"
    INDEX 01 01:01:60
  TRACK 31 AUDIO
    TITLE "3:cjc151_7161"
    INDEX 01 01:03:35
  TRACK 32 AUDIO
    TITLE "0:"
    INDEX 01 01:07:37
  TRACK 33 AUDIO
    TITLE "2:cjc151_7162"
    INDEX 01 01:09:16
  TRACK 34 AUDIO
    TITLE "0:"
    INDEX 01 01:10:20
  TRACK 35 AUDIO
    TITLE "3:cjc151_7163"
    INDEX 01 01:11:72
  TRACK 36 AUDIO
    TITLE "0:"
    INDEX 01 01:16:48
  TRACK 37 AUDIO
    TITLE "2:cjc151_7164"
    INDEX 01 01:18:25
  TRACK 38 AUDIO
    TITLE "0:"
    INDEX 01 01:19:27
  TRACK 39 AUDIO
    TITLE "3:cjc151_7165"
    INDEX 01 01:21:14
  TRACK 40 AUDIO
    TITLE "0:"
    INDEX 01 01:25:51
  TRACK 41 AUDIO
    TITLE "2:cjc151_7166"
    INDEX 01 01:27:30
  TRACK 42 AUDIO
    TITLE "0:"
    INDEX 01 01:28:27
  TRACK 43 AUDIO
    TITLE "3:cjc151_7167"
    INDEX 01 01:30:03
  TRACK 44 AUDIO
    TITLE "0:"
    INDEX 01 01:34:05
  TRACK 45 AUDIO
    TITLE "2:cjc151_7168"
    INDEX 01 01:35:59
  TRACK 46 AUDIO
    TITLE "0:"
    INDEX 01 01:36:72
  TRACK 47 AUDIO
    TITLE "3:cjc151_7169"
    INDEX 01 01:38:45
  TRACK 48 AUDIO
    TITLE "0:"
    INDEX 01 01:42:57
  TRACK 49 AUDIO
    TITLE "2:cjc151_7170"
    INDEX 01 01:44:36
  TRACK 50 AUDIO
    TITLE "0:"
    INDEX 01 01:45:57
  TRACK 51 AUDIO
    TITLE "3:cjc151_7171"
    INDEX 01 01:47:39
  TRACK 52 AUDIO
    TITLE "0:"
    INDEX 01 01:51:11
  TRACK 53 AUDIO
    TITLE "2:cjc151_7172"
    INDEX 01 01:52:65
  TRACK 54 AUDIO
    TITLE "0:"
    INDEX 01 01:53:59
  TRACK 55 AUDIO
    TITLE "3:cjc151_7173"
    INDEX 01 01:55:36
  TRACK 56 AUDIO
    TITLE "0:"
    INDEX 01 01:59:61
  TRACK 57 AUDIO
    TITLE "2:cjc151_7174"
    INDEX 01 02:01:43
  TRACK 58 AUDIO
    TITLE "0:"
    INDEX 01 02:02:36
  TRACK 59 AUDIO
    TITLE "3:cjc151_7175"
    INDEX 01 02:04:15
  TRACK 60 AUDIO
    TITLE "0:"
    INDEX 01 02:07:43
  TRACK 61 AUDIO
    TITLE "2:cjc151_7176"
    INDEX 01 02:09:28
  TRACK 62 AUDIO
    TITLE "0:"
    INDEX 01 02:10:47
  TRACK 63 AUDIO
    TITLE "3:cjc151_7177"
    INDEX 01 02:12:27
  TRACK 64 AUDIO
    TITLE "0:"
    INDEX 01 02:16:52
  TRACK 65 AUDIO
    TITLE "2:cjc151_7178"
    INDEX 01 02:18:31
  TRACK 66 AUDIO
    TITLE "0:"
    INDEX 01 02:19:56
  TRACK 67 AUDIO
    TITLE "3:cjc151_7179"
    INDEX 01 02:21:35
  TRACK 68 AUDIO
    TITLE "0:"
    INDEX 01 02:25:70
  TRACK 69 AUDIO
    TITLE "2:cjc151_7180"
    INDEX 01 02:27:48
  TRACK 70 AUDIO
    TITLE "0:"
    INDEX 01 02:28:57
  TRACK 71 AUDIO
    TITLE "3:cjc151_7181"
    INDEX 01 02:30:36
  TRACK 72 AUDIO
    TITLE "0:"
    INDEX 01 02:34:36
  TRACK 73 AUDIO
    TITLE "2:cjc151_7182"
    INDEX 01 02:36:15
  TRACK 74 AUDIO
    TITLE "0:"
    INDEX 01 02:37:46
  TRACK 75 AUDIO
    TITLE "3:cjc151_7183"
    INDEX 01 02:39:26
  TRACK 76 AUDIO
    TITLE "0:"
    INDEX 01 02:44:27
  TRACK 77 AUDIO
    TITLE "2:cjc151_7184"
    INDEX 01 02:46:08
  TRACK 78 AUDIO
    TITLE "0:"
    INDEX 01 02:47:25
  TRACK 79 AUDIO
    TITLE "3:cjc151_7185"
    INDEX 01 02:49:06
  TRACK 80 AUDIO
    TITLE "0:"
    INDEX 01 02:52:60
  TRACK 81 AUDIO
    TITLE "2:cjc151_7186"
    INDEX 01 02:54:37
  TRACK 82 AUDIO
    TITLE "0:"
    INDEX 01 02:55:48
  TRACK 83 AUDIO
    TITLE "3:cjc151_7187"
    INDEX 01 02:57:27
  TRACK 84 AUDIO
    TITLE "0:"
    INDEX 01 03:00:67
  TRACK 85 AUDIO
    TITLE "2:cjc151_7188"
    INDEX 01 03:02:44
  TRACK 86 AUDIO
    TITLE "0:"
    INDEX 01 03:03:50
  TRACK 87 AUDIO
    TITLE "3:cjc151_7189"
    INDEX 01 03:05:27
  TRACK 88 AUDIO
    TITLE "0:"
    INDEX 01 03:10:10
